<?xml version="1.0" encoding="utf-8"?>
<!-- Generator: Adobe Illustrator 25.4.0, SVG Export Plug-In . SVG Version: 6.00 Build 0)  -->
<svg version="1.1" id="Capa_1" xmlns="http://www.w3.org/2000/svg" xmlns:xlink="http://www.w3.org/1999/xlink" x="0px" y="0px"
	 viewBox="0 0 512 512" style="enable-background:new 0 0 512 512;" xml:space="preserve">
<style type="text/css">
	.st0{fill:#78A91F;}
	.st1{fill:#ECFDF5;}
	.st2{fill:#0B9B67;}
	.st3{fill:#098455;}
	.st4{fill:#FFFFFF;}
	.st5{fill:#10B981;}
	.st6{fill:#12A06D;}
	.st7{fill:#EAF6FF;}
	.st8{fill:#0C8758;}
	.st9{fill:#0C6D46;}
	.st10{fill:#1EE251;}
	.st11{fill:#CA6E59;}
	.st12{fill:#BB5D4C;}
	.st13{fill:#A44F3E;}
	.st14{fill:#FFB09E;}
	.st15{fill:#FFA78F;}
	.st16{fill:#FFCEBF;}
	.st17{fill:#8BC727;}
</style>
<g>
	<g>
		<path class="st0" d="M66.7,424c44.7,47.4,108,77,178.3,77s133.6-29.6,178.3-77H66.7z"/>
	</g>
	<g>
		<path class="st1" d="M245,11C109.7,11,0,120.7,0,256c0,34.5,7.1,67.4,20,97.2L66.7,424h356.6c41.3-43.9,66.7-103,66.7-168
			C490,120.7,380.3,11,245,11L245,11z"/>
		<path class="st2" d="M472,384.3V163.6c-8.2-20-18.9-38.7-31.8-55.7H38.1c-10,0-18,8.1-18,18v227.2c4.7,10.8,10.1,21.2,16.2,31.1
			L472,384.3z"/>
		<path class="st3" d="M50.1,359.3c-3.3,0-6-2.7-6-6V138c0-3.3,2.7-6,6-6H71v-6c0-10,8.1-18,18-18h-51c-10,0-18,8.1-18,18v227.2
			c4.5,10.4,9.8,20.5,15.6,30.1H71v-24L50.1,359.3L50.1,359.3z"/>
		<path class="st4" d="M441.9,132H50.1c-3.3,0-6,2.7-6,6v215.3c0,3.3,2.7,6,6,6H61l1-1v-68.4c0-17.6,14.3-31.9,31.9-31.9h173.9
			c17.6,0,31.9,14.3,31.9,31.9v68.4l1,1h141.1c3.3,0,6-2.7,6-6V138C447.9,134.6,445.2,132,441.9,132L441.9,132z"/>
		<path class="st5" d="M502,44.3H331c-5.5,0-10,4.5-10,10v66.7c0,1.2-0.7,2.3-1.9,2.8l-31.5,12.6c-4.2,1.7-4.2,7.6,0,9.3l31.5,12.6
			c1.1,0.5,1.9,1.6,1.9,2.8v66.7c0,5.5,4.5,10,10,10h171c5.5,0,10-4.5,10-10V54.3C512,48.8,507.5,44.3,502,44.3z"/>
		<path class="st6" d="M347.5,227.9V54.3c0-5.5,4.5-10,10-10H331c-5.5,0-10,4.5-10,10v66.7c0,1.2-0.7,2.3-1.9,2.8l-31.5,12.6
			c-4.2,1.7-4.2,7.6,0,9.3l31.5,12.6c1.1,0.5,1.9,1.6,1.9,2.8v66.7c0,5.5,4.5,10,10,10h26.5C351.9,237.9,347.5,233.4,347.5,227.9
			L347.5,227.9z"/>
		<path class="st7" d="M75.2,262.8V138c0-3.3,2.7-6,6-6H50.1c-3.3,0-6,2.7-6,6v215.3c0,3.3,2.7,6,6,6H61v-69.4
			C61,278.6,66.6,268.7,75.2,262.8z"/>
		<g>
			<path class="st8" d="M492,383.3H35.6c9.3,15.2,20.1,29.3,32.3,42.1h424c5.5,0,10-4.5,10-10v-22.1
				C502,387.8,497.5,383.3,492,383.3z"/>
		</g>
		<path class="st9" d="M88,415.4v-22.1c0-5.5,4.5-10,10-10H35.6c9.3,15.2,20.1,29.3,32.3,42.1h30C92.5,425.4,88,420.9,88,415.4z"/>
		<g>
			<g>
				<path class="st5" d="M300.8,359.3H61v-69.4c0-18.2,14.7-32.9,32.9-32.9h173.9c18.2,0,32.9,14.7,32.9,32.9L300.8,359.3
					L300.8,359.3z"/>
			</g>
			<path class="st6" d="M135.9,256.9h-42c-18.2,0-32.9,14.7-32.9,32.9v69.4h42v-69.4C103,271.7,117.7,256.9,135.9,256.9z"/>
			<path class="st10" d="M204.2,246.7h-46.7c-5.2,0-10.2-0.9-14.9-2.7V289c0,3.6,3.6,6,6.9,4.6l29.4-12.2c1.2-0.5,2.6-0.5,3.8,0
				l29.4,12.2c3.3,1.4,6.9-1.1,6.9-4.6V244C214.5,245.7,209.5,246.7,204.2,246.7L204.2,246.7z"/>
			<g>
				<g>
					<path class="st11" d="M104.5,151.2h10.2v-10.2c0-13,9.8-23.7,22.4-25.2l-12.4-4.6c-7.9-2.9-14.4-8.2-18.8-15
						c-4.6,6.6-7.4,14.6-7.4,23.3v32.6C100.4,151.5,102.4,151.2,104.5,151.2z"/>
					<path class="st12" d="M124.4,112.1l10.7,3.9c1.6-0.3,3.3-0.5,5-0.5h81.7c14,0,25.4,11.4,25.4,25.4v10.2h10.2
						c2.1,0,4.1,0.4,5.9,1v-50c0-26.6-21.6-48.1-48.1-48.1H110.4c-6.6,0-11.9,5.3-11.9,11.9v9.2C98.6,91.6,108.9,106.4,124.4,112.1z
						"/>
					<g>
						<path class="st13" d="M133.4,115.4c2.1-0.6,4.4-0.9,6.7-0.9h22.4l-6.6-2.4c-15.5-5.7-25.9-20.5-25.9-37.1v-9.2
							c0-6.5,5.3-11.9,11.9-11.9h-31.4c-6.6,0-11.9,5.3-11.9,11.9v9.2c0,16.6,10.3,31.4,25.9,37.1L133.4,115.4z"/>
					</g>
				</g>
				<path class="st14" d="M158.5,246.7v8.8c0,0.9,0.3,1.8,0.7,2.6l17.4,28.7c1.9,3.2,6.6,3.2,8.5,0l17.4-28.7
					c0.5-0.8,0.7-1.7,0.7-2.6v-8.8H158.5z"/>
				<path class="st15" d="M179.2,255.5v-7.8h-20.7v7.8c0,0.9,0.3,1.8,0.7,2.6l17.4,28.7c1.9,3.2,6.6,3.2,8.5,0l6.1-10l-11.3-18.7
					C179.4,257.3,179.2,256.4,179.2,255.5z"/>
				<g>
					<path class="st14" d="M257.3,150.2h-10.2v51.4h10.2c10.9,0,19.8-8.8,19.8-19.8v-11.9C277.1,159,268.3,150.2,257.3,150.2z"/>
				</g>
				<g>
					<path class="st16" d="M204.2,247.7h-46.7c-24.2,0-43.9-19.6-43.9-43.9v-62.9c0-14.6,11.8-26.4,26.4-26.4h81.7
						c14.6,0,26.4,11.8,26.4,26.4v62.9C248.1,228,228.5,247.7,204.2,247.7z"/>
				</g>
				<path class="st15" d="M114.7,150.2h-10.2c-10.9,0-19.8,8.8-19.8,19.8v11.9c0,10.9,8.8,19.8,19.8,19.8h10.2V150.2z"/>
				<path class="st14" d="M134.6,203.8v-62.9c0-14.6,11.8-26.4,26.4-26.4h-20.9c-14.6,0-26.4,11.8-26.4,26.4v62.9
					c0,24.2,19.6,43.9,43.9,43.9h20.9C154.2,247.7,134.6,228,134.6,203.8z"/>
				<g>
					<g>
						<g>
							<circle class="st11" cx="146.6" cy="164" r="11.2"/>
						</g>
						<g>
							<circle class="st11" cx="215.3" cy="164" r="11.2"/>
						</g>
					</g>
					<g>
						<path class="st11" d="M180.9,201.2c-2.1,0-4.2-0.9-5.6-2.6L166,188c-2.1-2.4-2.4-5.7-1-8.5l9.2-17.1c2-3.6,6.5-5,10.2-3
							c3.6,2,5,6.5,3,10.2l-6.8,12.6l5.8,6.6c2.7,3.1,2.4,7.9-0.7,10.6C184.4,200.5,182.7,201.2,180.9,201.2L180.9,201.2z"/>
					</g>
				</g>
			</g>
		</g>
		<g>
			<path class="st11" d="M180.9,231.9c-8.8,0-17.7-3.4-24.4-10.1c-2.9-2.9-2.9-7.7,0-10.6c2.9-2.9,7.7-2.9,10.6,0
				c7.6,7.6,20,7.6,27.6,0c2.9-2.9,7.7-2.9,10.6,0c2.9,2.9,2.9,7.7,0,10.6C198.6,228.5,189.7,231.9,180.9,231.9z"/>
		</g>
		<g>
			<g>
				<path class="st4" d="M416,94.4h-49c-4.1,0-7.5-3.4-7.5-7.5s3.4-7.5,7.5-7.5h49c4.1,0,7.5,3.4,7.5,7.5S420.1,94.4,416,94.4z"/>
			</g>
			<g>
				<path class="st4" d="M466,138.8h-99c-4.1,0-7.5-3.4-7.5-7.5s3.4-7.5,7.5-7.5h99c4.1,0,7.5,3.4,7.5,7.5S470.1,138.8,466,138.8z"
					/>
			</g>
			<g>
				<path class="st4" d="M466,170.8h-99c-4.1,0-7.5-3.4-7.5-7.5s3.4-7.5,7.5-7.5h99c4.1,0,7.5,3.4,7.5,7.5S470.1,170.8,466,170.8z"
					/>
			</g>
			<g>
				<path class="st4" d="M466,202.8h-99c-4.1,0-7.5-3.4-7.5-7.5s3.4-7.5,7.5-7.5h99c4.1,0,7.5,3.4,7.5,7.5S470.1,202.8,466,202.8z"
					/>
			</g>
		</g>
		<path class="st17" d="M502,250.8H331c-5.5,0-10,4.5-10,10v16.4c0,1.2-0.7,2.3-1.9,2.8l-31.5,12.6c-4.2,1.7-4.2,7.6,0,9.3
			l31.5,12.6c1.1,0.5,1.9,1.6,1.9,2.8v16.4c0,5.5,4.5,10,10,10h171c5.5,0,10-4.5,10-10v-72.9C512,255.3,507.5,250.8,502,250.8
			L502,250.8z"/>
		<path class="st0" d="M347.5,333.7v-72.9c0-5.5,4.5-10,10-10H331c-5.5,0-10,4.5-10,10v16.4c0,1.2-0.7,2.3-1.9,2.8l-31.5,12.6
			c-4.2,1.7-4.2,7.6,0,9.3l31.5,12.6c1.1,0.5,1.9,1.6,1.9,2.8v16.4c0,5.5,4.5,10,10,10h26.5C351.9,343.7,347.5,339.2,347.5,333.7
			L347.5,333.7z"/>
		<g>
			<g>
				<path class="st4" d="M466,288.7h-99c-4.1,0-7.5-3.4-7.5-7.5s3.4-7.5,7.5-7.5h99c4.1,0,7.5,3.4,7.5,7.5S470.1,288.7,466,288.7z"
					/>
			</g>
			<g>
				<path class="st4" d="M466,320.7h-99c-4.1,0-7.5-3.4-7.5-7.5s3.4-7.5,7.5-7.5h99c4.1,0,7.5,3.4,7.5,7.5S470.1,320.7,466,320.7z"
					/>
			</g>
		</g>
		<g>
			<g>
				<circle class="st17" cx="464.5" cy="403.5" r="7.5"/>
			</g>
			<g>
				<circle class="st4" cx="438.5" cy="403.5" r="7.5"/>
			</g>
		</g>
	</g>
</g>
</svg>
