<?xml version="1.0" encoding="utf-8"?>
<!-- Generator: Adobe Illustrator 25.4.0, SVG Export Plug-In . SVG Version: 6.00 Build 0)  -->
<svg version="1.1" id="Calque_1" xmlns="http://www.w3.org/2000/svg" xmlns:xlink="http://www.w3.org/1999/xlink" x="0px" y="0px"
	 viewBox="0 0 1080 1080" style="enable-background:new 0 0 1080 1080;" xml:space="preserve">
<style type="text/css">
	.st0{fill:#4F9E5A;}
	.st1{fill:#4F9F5A;}
</style>
<g>
	<path class="st0" d="M920.55,23H160.45C85.09,23,24,84.09,24,159.45v760.09C24,994.91,85.09,1056,160.45,1056h760.09
		c75.36,0,136.45-61.09,136.45-136.45V159.45C1057,84.09,995.91,23,920.55,23z M935.82,863.02c0,40.39-32.74,73.12-73.12,73.12
		H216.98c-40.39,0-73.12-32.74-73.12-73.12V217.3c0-40.39,32.74-73.12,73.12-73.12H862.7c40.39,0,73.12,32.74,73.12,73.12V863.02z"
		/>
	<g>
		<path class="st1" d="M381.46,379.91h-121.6c-15.79,0-28.59-12.8-28.59-28.59v-91.14c0-15.79,12.8-28.59,28.59-28.59h121.6
			c15.79,0,28.59,12.8,28.59,28.59v91.14C410.05,367.11,397.25,379.91,381.46,379.91z"/>
		<path class="st1" d="M819.82,379.91H494.27c-15.79,0-28.59-12.8-28.59-28.59v-91.14c0-15.79,12.8-28.59,28.59-28.59h325.55
			c15.79,0,28.59,12.8,28.59,28.59v91.14C848.41,367.11,835.61,379.91,819.82,379.91z"/>
	</g>
	<g>
		<path class="st1" d="M381.46,614.33h-121.6c-15.79,0-28.59-12.8-28.59-28.59v-91.14c0-15.79,12.8-28.59,28.59-28.59h121.6
			c15.79,0,28.59,12.8,28.59,28.59v91.14C410.05,601.52,397.25,614.33,381.46,614.33z"/>
		<path class="st1" d="M819.82,614.33H494.27c-15.79,0-28.59-12.8-28.59-28.59v-91.14c0-15.79,12.8-28.59,28.59-28.59h325.55
			c15.79,0,28.59,12.8,28.59,28.59v91.14C848.41,601.52,835.61,614.33,819.82,614.33z"/>
	</g>
	<g>
		<path class="st1" d="M381.46,848.74h-121.6c-15.79,0-28.59-12.8-28.59-28.59V729c0-15.79,12.8-28.59,28.59-28.59h121.6
			c15.79,0,28.59,12.8,28.59,28.59v91.14C410.05,835.94,397.25,848.74,381.46,848.74z"/>
		<path class="st1" d="M819.82,848.74H494.27c-15.79,0-28.59-12.8-28.59-28.59V729c0-15.79,12.8-28.59,28.59-28.59h325.55
			c15.79,0,28.59,12.8,28.59,28.59v91.14C848.41,835.94,835.61,848.74,819.82,848.74z"/>
	</g>
</g>
</svg>
