<?xml version="1.0" encoding="utf-8"?>
<!-- Generator: Adobe Illustrator 25.4.0, SVG Export Plug-In . SVG Version: 6.00 Build 0)  -->
<svg version="1.1" id="Calque_1" xmlns="http://www.w3.org/2000/svg" xmlns:xlink="http://www.w3.org/1999/xlink" x="0px" y="0px"
	 viewBox="0 0 1080 1080" style="enable-background:new 0 0 1080 1080;" xml:space="preserve">
<style type="text/css">
	.st0{fill:#FFFFFF;}
</style>
<g>
	<path class="st0" d="M920.5,23H160.4C85.1,23,24,84.1,24,159.4v760.1c0,75.4,61.1,136.5,136.4,136.5h760.1
		c75.4,0,136.4-61.1,136.4-136.5V159.4C1057,84.1,995.9,23,920.5,23z M935.8,863c0,40.4-32.7,73.1-73.1,73.1H217
		c-40.4,0-73.1-32.7-73.1-73.1V217.3c0-40.4,32.7-73.1,73.1-73.1h645.7c40.4,0,73.1,32.7,73.1,73.1V863z"/>
	<g>
		<path class="st0" d="M381.5,379.9H259.9c-15.8,0-28.6-12.8-28.6-28.6v-91.1c0-15.8,12.8-28.6,28.6-28.6h121.6
			c15.8,0,28.6,12.8,28.6,28.6v91.1C410,367.1,397.2,379.9,381.5,379.9z"/>
		<path class="st0" d="M819.8,379.9H494.3c-15.8,0-28.6-12.8-28.6-28.6v-91.1c0-15.8,12.8-28.6,28.6-28.6h325.5
			c15.8,0,28.6,12.8,28.6,28.6v91.1C848.4,367.1,835.6,379.9,819.8,379.9z"/>
	</g>
	<g>
		<path class="st0" d="M381.5,614.3H259.9c-15.8,0-28.6-12.8-28.6-28.6v-91.1c0-15.8,12.8-28.6,28.6-28.6h121.6
			c15.8,0,28.6,12.8,28.6,28.6v91.1C410,601.5,397.2,614.3,381.5,614.3z"/>
		<path class="st0" d="M819.8,614.3H494.3c-15.8,0-28.6-12.8-28.6-28.6v-91.1c0-15.8,12.8-28.6,28.6-28.6h325.5
			c15.8,0,28.6,12.8,28.6,28.6v91.1C848.4,601.5,835.6,614.3,819.8,614.3z"/>
	</g>
	<g>
		<path class="st0" d="M381.5,848.7H259.9c-15.8,0-28.6-12.8-28.6-28.6V729c0-15.8,12.8-28.6,28.6-28.6h121.6
			c15.8,0,28.6,12.8,28.6,28.6v91.1C410,835.9,397.2,848.7,381.5,848.7z"/>
		<path class="st0" d="M819.8,848.7H494.3c-15.8,0-28.6-12.8-28.6-28.6V729c0-15.8,12.8-28.6,28.6-28.6h325.5
			c15.8,0,28.6,12.8,28.6,28.6v91.1C848.4,835.9,835.6,848.7,819.8,848.7z"/>
	</g>
</g>
</svg>
