<svg id="Capa_1" enable-background="new 0 0 512 512" height="512" viewBox="0 0 512 512" width="512" xmlns="http://www.w3.org/2000/svg"><g><path d="m85.915 438-4.361 1c44.429 45.057 106.169 73 174.446 73s130.017-27.943 174.446-73l-4.361-1z" fill="#26a6fe"/><path d="m256 22c-135.31 0-245 109.69-245 245 0 51.47 15.884 99.223 43 138.652h1v-95.463c0-4.962 4.038-9 9-9h74.351c3.894 0 7.328 2.484 8.547 6.182l14.506 43.998c1.49 4.52 5.688 7.556 10.447 7.556h168.297c4.758 0 8.957-3.036 10.447-7.556l14.506-43.998c1.219-3.697 4.654-6.182 8.547-6.182h74.352c4.962 0 9 4.038 9 9v95.463h1c27.116-39.429 43-87.182 43-138.652 0-135.31-109.69-245-245-245z" fill="#c4e2ff"/><path d="m161.405 351.369c1.49 4.52 5.688 7.556 10.447 7.556h168.297c4.758 0 8.957-3.036 10.447-7.556l11.331-34.369h-211.854z" fill="#fff"/><path d="m203.331 351.369-11.331-34.369h-41.927l11.331 34.369c1.49 4.52 5.688 7.556 10.447 7.556h41.927c-4.758-.001-8.956-3.037-10.447-7.556z" fill="#eaf6ff"/><path d="m81.547 439h348.906c10.126-10.269 19.349-21.427 27.547-33.348v-95.463c0-5.523-4.477-10-10-10h-74.351c-4.316 0-8.146 2.769-9.497 6.869l-14.506 43.998c-1.352 4.099-5.181 6.869-9.497 6.869h-168.297c-4.316 0-8.146-2.77-9.497-6.869l-14.506-43.998c-1.352-4.099-5.181-6.869-9.497-6.869h-74.352c-5.523 0-10 4.477-10 10v95.463c8.198 11.921 17.421 23.079 27.547 33.348z" fill="#f6a96c"/><g><path d="m108 310.189c0-5.523 4.477-10 10-10h-54c-5.523 0-10 4.477-10 10v95.463c8.198 11.921 17.421 23.079 27.547 33.348h26.453z" fill="#ea9b58"/></g><g><path d="m387.452 190.792h-262.904c-4.283 0-7.756-3.472-7.756-7.756v-175.28c0-4.283 3.472-7.756 7.756-7.756h262.903c4.283 0 7.756 3.472 7.756 7.756v175.28c0 4.284-3.472 7.756-7.755 7.756z" fill="#fed402"/><path d="m294.939 74.552-35.553 27.071c-1.186.903-2.602 1.38-4.093 1.38s-2.906-.478-4.092-1.38l-35.553-27.071-97.09 113.354c1.422 1.747 3.563 2.886 5.991 2.886h262.903c2.038 0 3.877-.802 5.261-2.088z" fill="#fee45a"/><path d="m259.992 102.418 132.263-100.708c-1.324-1.054-2.979-1.71-4.803-1.71h-262.904c-2.141 0-4.078.867-5.482 2.27l131.528 100.148c2.777 2.113 6.622 2.113 9.398 0z" fill="#fac600"/><path d="m275.528 90.418-118.749-90.418h-32.231c-2.141 0-4.078.867-5.482 2.27l131.528 100.148c2.776 2.114 6.621 2.114 9.397 0l15.658-11.922c-.038-.029-.082-.048-.121-.078z" fill="#e8b800"/></g><path d="m284 225.832v-96.832c0-2.761-2.239-5-5-5h-46c-2.761 0-5 2.239-5 5v96.832c0 1.657-1.343 3-3 3h-22.476c-4.375 0-6.64 5.221-3.651 8.416l53.476 57.168c1.976 2.112 5.327 2.112 7.303 0l53.476-57.168c2.988-3.195.723-8.416-3.651-8.416h-22.477c-1.657 0-3-1.343-3-3z" fill="#26a6fe"/><g><path d="m228.386 247.247c-2.988-3.195-.723-8.416 3.651-8.416h17.963c1.657 0 3-1.343 3-3v-111.831h-20c-2.761 0-5 2.239-5 5v96.832c0 1.657-1.343 3-3 3h-22.476c-4.375 0-6.64 5.221-3.651 8.416l53.476 57.168c1.976 2.112 5.327 2.112 7.303 0l6.428-6.872z" fill="#0593fc"/></g><path d="m307 409h-102c-6.075 0-11-4.925-11-11 0-6.075 4.925-11 11-11h102c6.075 0 11 4.925 11 11 0 6.075-4.925 11-11 11z" fill="#fed2a4"/></g></svg>