<?xml version="1.0" encoding="utf-8"?>
<!-- Generator: Adobe Illustrator 25.4.0, SVG Export Plug-In . SVG Version: 6.00 Build 0)  -->
<svg version="1.1" id="Capa_1" xmlns="http://www.w3.org/2000/svg" xmlns:xlink="http://www.w3.org/1999/xlink" x="0px" y="0px"
	 viewBox="0 0 512 512" style="enable-background:new 0 0 512 512;" xml:space="preserve">
<style type="text/css">
	.st0{fill:#ECFDF5;}
	.st1{fill:#8BC727;}
	.st2{fill:#81B823;}
	.st3{fill:#10B981;}
	.st4{fill:#0B9B67;}
	.st5{fill:#78A91F;}
	.st6{fill:#D8ECFE;}
	.st7{fill:#1EE251;}
	.st8{fill:#1BB23F;}
	.st9{fill:#FFFFFF;}
</style>
<g>
	<path class="st0" d="M267,11C131.7,11,22,120.7,22,256s109.7,245,245,245c63.2,0,120.8-23.9,164.3-63.2l-0.4-1H279.1
		c-1.6,0-3.1,0.6-4.2,1.8l-36.2,36.2c-1,1-2.1,1.2-2.8,1.2c-2,0-4-1.5-4-4v-29.2c0-3.3-2.7-6-6-6H182c-5,0-9-4-9-9V243h8
		c1.3,0,2.6,0.5,3.5,1.5l32,32c1.2,1.2,2.6,1.5,3.5,1.5c2.5,0,5-1.9,5-5V248c0-2.8,2.2-5,5-5H270c5.5,0,10-4.5,10-10v-16h190.3
		c5,0,9,4,9,9v150.3l1,0.3C500.5,341,512,299.8,512,256C512,120.7,402.3,11,267,11L267,11z"/>
	<path class="st1" d="M470.3,216H279v17c0,5-4,9-9,9h-39.9c-3.3,0-6,2.7-6,6v24.9c0,2.5-2.1,4-4,4c-0.7,0-1.8-0.2-2.8-1.2l-32-32
		c-1.1-1.1-2.6-1.8-4.2-1.8h-9v185.8c0,5.5,4.5,10,10,10h43.8c2.8,0,5,2.2,5,5v29.2c0,4.5,5.4,6.7,8.5,3.5l36.2-36.2
		c0.9-0.9,2.2-1.5,3.5-1.5h152.2c19.4-17.6,36-38.2,49-61.2V226C480.3,220.5,475.8,216,470.3,216L470.3,216z"/>
	<path class="st2" d="M214,427.8V273.9l-29.4-29.4c-0.9-0.9-2.2-1.5-3.5-1.5h-9v184.8c0,5.5,4.5,10,10,10h42
		C218.5,437.8,214,433.3,214,427.8L214,427.8z"/>
	<g>
		<path class="st3" d="M270,41.6H10c-5.5,0-10,4.5-10,10V233c0,5.5,4.5,10,10,10h171c1.3,0,2.6,0.5,3.5,1.5l32,32
			c3.1,3.1,8.5,0.9,8.5-3.5V248c0-2.8,2.2-5,5-5H270c5.5,0,10-4.5,10-10V51.6C280,46.1,275.5,41.6,270,41.6L270,41.6z"/>
		<g>
			<path class="st4" d="M40,233V51.6c0-5.5,4.5-10,10-10H10c-5.5,0-10,4.5-10,10V233c0,5.5,4.5,10,10,10h40
				C44.5,243,40,238.5,40,233z"/>
		</g>
		<g>
			<g>
				<path class="st5" d="M404.3,334.4H248c-4.1,0-7.5-3.4-7.5-7.5s3.4-7.5,7.5-7.5h156.4c4.1,0,7.5,3.4,7.5,7.5
					S408.5,334.4,404.3,334.4z"/>
			</g>
			<g>
				<path class="st5" d="M404.3,377.3H248c-4.1,0-7.5-3.4-7.5-7.5s3.4-7.5,7.5-7.5h156.4c4.1,0,7.5,3.4,7.5,7.5
					S408.5,377.3,404.3,377.3z"/>
			</g>
			<g>
				<path class="st5" d="M404.3,291.4H248c-4.1,0-7.5-3.4-7.5-7.5s3.4-7.5,7.5-7.5h156.4c4.1,0,7.5,3.4,7.5,7.5
					S408.5,291.4,404.3,291.4z"/>
			</g>
		</g>
	</g>
	<g>
		<g>
			<g>
				<path class="st6" d="M219,106.9H61c-4.1,0-7.5-3.4-7.5-7.5s3.4-7.5,7.5-7.5h158c4.1,0,7.5,3.4,7.5,7.5S223.1,106.9,219,106.9z"
					/>
			</g>
			<g>
				<path class="st6" d="M219,149.8H61c-4.1,0-7.5-3.4-7.5-7.5s3.4-7.5,7.5-7.5h158c4.1,0,7.5,3.4,7.5,7.5S223.1,149.8,219,149.8z"
					/>
			</g>
			<g>
				<path class="st6" d="M139,192.8H61c-4.1,0-7.5-3.4-7.5-7.5s3.4-7.5,7.5-7.5h78c4.1,0,7.5,3.4,7.5,7.5S143.1,192.8,139,192.8z"/>
			</g>
		</g>
	</g>
	<g>
		<path class="st7" d="M463.8,174.2H325.4c-5.5,0-10-4.5-10-10v-81c0-5.5,4.5-10,10-10h138.4c5.5,0,10,4.5,10,10v81
			C473.8,169.8,469.3,174.2,463.8,174.2z"/>
	</g>
	<path class="st8" d="M353.6,164.2v-81c0-5.5,4.5-10,10-10h-38.2c-5.5,0-10,4.5-10,10v81c0,5.5,4.5,10,10,10h38.2
		C358.1,174.2,353.6,169.8,353.6,164.2z"/>
	<g>
		<g>
			<path class="st9" d="M421.6,133.8h10c2.8,0,5-2.2,5-5v-10c0-2.8-2.2-5-5-5h-10c-2.8,0-5,2.2-5,5v10
				C416.6,131.5,418.8,133.8,421.6,133.8z"/>
		</g>
		<g>
			<path class="st9" d="M389.6,133.8h10c2.8,0,5-2.2,5-5v-10c0-2.8-2.2-5-5-5h-10c-2.8,0-5,2.2-5,5v10
				C384.6,131.5,386.8,133.8,389.6,133.8z"/>
		</g>
		<g>
			<path class="st9" d="M357.6,133.8h10c2.8,0,5-2.2,5-5v-10c0-2.8-2.2-5-5-5h-10c-2.8,0-5,2.2-5,5v10
				C352.6,131.5,354.8,133.8,357.6,133.8z"/>
		</g>
	</g>
</g>
</svg>
